<mxfile host="app.diagrams.net" agent="Mozilla/5.0 (Macintosh; Intel Mac OS X 10_15_7) AppleWebKit/537.36 (KHTML, like Gecko) Chrome/131.0.0.0 Safari/537.36" version="25.0.3">
  <diagram name="Page-1" id="HIItsMRmkaMFXmOHhdbL">
    <mxGraphModel dx="1434" dy="761" grid="1" gridSize="10" guides="1" tooltips="1" connect="1" arrows="1" fold="1" page="1" pageScale="1" pageWidth="850" pageHeight="1100" math="0" shadow="0">
      <root>
        <mxCell id="0" />
        <mxCell id="1" parent="0" />
        <mxCell id="EQCzg4LNoLQzl_PHoIt_-3" value="" style="edgeStyle=orthogonalEdgeStyle;rounded=0;orthogonalLoop=1;jettySize=auto;html=1;" edge="1" parent="1" source="EQCzg4LNoLQzl_PHoIt_-1" target="EQCzg4LNoLQzl_PHoIt_-2">
          <mxGeometry relative="1" as="geometry" />
        </mxCell>
        <mxCell id="EQCzg4LNoLQzl_PHoIt_-1" value="elb" style="rounded=1;whiteSpace=wrap;html=1;" vertex="1" parent="1">
          <mxGeometry x="380" y="130" width="120" height="60" as="geometry" />
        </mxCell>
        <mxCell id="EQCzg4LNoLQzl_PHoIt_-5" value="" style="edgeStyle=orthogonalEdgeStyle;rounded=0;orthogonalLoop=1;jettySize=auto;html=1;" edge="1" parent="1" source="EQCzg4LNoLQzl_PHoIt_-2" target="EQCzg4LNoLQzl_PHoIt_-4">
          <mxGeometry relative="1" as="geometry" />
        </mxCell>
        <mxCell id="EQCzg4LNoLQzl_PHoIt_-2" value="&amp;nbsp;ingress-nignx" style="rounded=1;whiteSpace=wrap;html=1;" vertex="1" parent="1">
          <mxGeometry x="380" y="270" width="120" height="60" as="geometry" />
        </mxCell>
        <mxCell id="EQCzg4LNoLQzl_PHoIt_-7" value="" style="edgeStyle=orthogonalEdgeStyle;rounded=0;orthogonalLoop=1;jettySize=auto;html=1;" edge="1" parent="1" source="EQCzg4LNoLQzl_PHoIt_-4" target="EQCzg4LNoLQzl_PHoIt_-6">
          <mxGeometry relative="1" as="geometry" />
        </mxCell>
        <mxCell id="EQCzg4LNoLQzl_PHoIt_-9" value="" style="edgeStyle=orthogonalEdgeStyle;rounded=0;orthogonalLoop=1;jettySize=auto;html=1;" edge="1" parent="1" source="EQCzg4LNoLQzl_PHoIt_-4" target="EQCzg4LNoLQzl_PHoIt_-8">
          <mxGeometry relative="1" as="geometry" />
        </mxCell>
        <mxCell id="EQCzg4LNoLQzl_PHoIt_-4" value="dify-proxy(nginx)" style="rounded=1;whiteSpace=wrap;html=1;" vertex="1" parent="1">
          <mxGeometry x="380" y="410" width="120" height="60" as="geometry" />
        </mxCell>
        <mxCell id="EQCzg4LNoLQzl_PHoIt_-6" value="dify-web" style="rounded=1;whiteSpace=wrap;html=1;" vertex="1" parent="1">
          <mxGeometry x="180" y="540" width="120" height="60" as="geometry" />
        </mxCell>
        <mxCell id="EQCzg4LNoLQzl_PHoIt_-11" value="" style="edgeStyle=orthogonalEdgeStyle;rounded=0;orthogonalLoop=1;jettySize=auto;html=1;" edge="1" parent="1" source="EQCzg4LNoLQzl_PHoIt_-8" target="EQCzg4LNoLQzl_PHoIt_-10">
          <mxGeometry relative="1" as="geometry" />
        </mxCell>
        <mxCell id="EQCzg4LNoLQzl_PHoIt_-13" value="" style="edgeStyle=orthogonalEdgeStyle;rounded=0;orthogonalLoop=1;jettySize=auto;html=1;" edge="1" parent="1" source="EQCzg4LNoLQzl_PHoIt_-8" target="EQCzg4LNoLQzl_PHoIt_-12">
          <mxGeometry relative="1" as="geometry" />
        </mxCell>
        <mxCell id="EQCzg4LNoLQzl_PHoIt_-15" value="" style="edgeStyle=orthogonalEdgeStyle;rounded=0;orthogonalLoop=1;jettySize=auto;html=1;" edge="1" parent="1" source="EQCzg4LNoLQzl_PHoIt_-8" target="EQCzg4LNoLQzl_PHoIt_-14">
          <mxGeometry relative="1" as="geometry" />
        </mxCell>
        <mxCell id="EQCzg4LNoLQzl_PHoIt_-8" value="dify-api" style="rounded=1;whiteSpace=wrap;html=1;" vertex="1" parent="1">
          <mxGeometry x="580" y="540" width="120" height="60" as="geometry" />
        </mxCell>
        <mxCell id="EQCzg4LNoLQzl_PHoIt_-10" value="sandbox" style="rounded=1;whiteSpace=wrap;html=1;" vertex="1" parent="1">
          <mxGeometry x="380" y="680" width="120" height="60" as="geometry" />
        </mxCell>
        <mxCell id="EQCzg4LNoLQzl_PHoIt_-17" value="" style="edgeStyle=orthogonalEdgeStyle;rounded=0;orthogonalLoop=1;jettySize=auto;html=1;" edge="1" parent="1" source="EQCzg4LNoLQzl_PHoIt_-12" target="EQCzg4LNoLQzl_PHoIt_-16">
          <mxGeometry relative="1" as="geometry" />
        </mxCell>
        <mxCell id="EQCzg4LNoLQzl_PHoIt_-21" value="" style="edgeStyle=orthogonalEdgeStyle;rounded=0;orthogonalLoop=1;jettySize=auto;html=1;" edge="1" parent="1" source="EQCzg4LNoLQzl_PHoIt_-12" target="EQCzg4LNoLQzl_PHoIt_-20">
          <mxGeometry relative="1" as="geometry" />
        </mxCell>
        <mxCell id="EQCzg4LNoLQzl_PHoIt_-12" value="dify-worker" style="rounded=1;whiteSpace=wrap;html=1;" vertex="1" parent="1">
          <mxGeometry x="580" y="680" width="120" height="60" as="geometry" />
        </mxCell>
        <mxCell id="EQCzg4LNoLQzl_PHoIt_-14" value="weathXXX" style="rounded=1;whiteSpace=wrap;html=1;" vertex="1" parent="1">
          <mxGeometry x="790" y="670" width="120" height="60" as="geometry" />
        </mxCell>
        <mxCell id="EQCzg4LNoLQzl_PHoIt_-16" value="redis" style="rounded=1;whiteSpace=wrap;html=1;" vertex="1" parent="1">
          <mxGeometry x="450" y="830" width="120" height="60" as="geometry" />
        </mxCell>
        <mxCell id="EQCzg4LNoLQzl_PHoIt_-20" value="pg" style="rounded=1;whiteSpace=wrap;html=1;" vertex="1" parent="1">
          <mxGeometry x="580" y="820" width="120" height="60" as="geometry" />
        </mxCell>
      </root>
    </mxGraphModel>
  </diagram>
</mxfile>
